<svg width="54" height="54" xmlns="http://www.w3.org/2000/svg" xmlns:xlink="http://www.w3.org/1999/xlink" xml:space="preserve" overflow="hidden"><defs><clipPath id="clip0"><rect x="166" y="565" width="54" height="54"/></clipPath></defs><g clip-path="url(#clip0)" transform="translate(-166 -565)"><path d="M197.124 595.971 201.2 593 208.8 603.438 206.686 610.6C206.4 611.552 205.505 612.2 204.514 612.181L197.048 611.99 189.448 601.552 193.486 598.619" stroke="#FFFFFF" stroke-width="2.38097" stroke-linecap="round" stroke-linejoin="round" fill="none"/><path d="M183.371 584.2 195.2 600.448C195.886 601.4 197.162 601.648 198.038 601L198.038 601C198.914 600.352 199.086 599.076 198.381 598.124L186.552 581.876 183.352 584.2Z" stroke="#FFFFFF" stroke-width="2.38097" stroke-linecap="round" stroke-linejoin="round" fill="none"/><path d="M183.333 571.933 174.914 578.067 177.6 581.781 183.371 584.2 186.571 581.876 185.962 575.552 183.333 571.933Z" stroke="#FFFFFF" stroke-width="2.38097" stroke-linecap="round" stroke-linejoin="round" fill="none"/><text fill="#FFFFFF" font-family="Arial,Arial_MSFontService,sans-serif" font-weight="400" font-size="2" transform="matrix(1.90476 0 0 1.90476 166 559)">Bau</text></g></svg>