<svg width="53" height="53" xmlns="http://www.w3.org/2000/svg" xmlns:xlink="http://www.w3.org/1999/xlink" xml:space="preserve" overflow="hidden"><defs><clipPath id="clip0"><rect x="390" y="327" width="53" height="53"/></clipPath></defs><g clip-path="url(#clip0)" transform="translate(-390 -327)"><path d="M415.369 359.604 412.023 359.604C410.845 359.604 409.891 360.557 409.891 361.735L409.891 372.204 403.03 372.204C401.46 372.204 400.189 370.933 400.189 369.363L400.189 355.603C400.189 355.603 398.338 355.603 398.338 355.603 396.281 355.603 395.253 353.117 396.711 351.677L414.434 333.936C414.958 333.412 415.799 333.412 416.322 333.936L434.045 351.659C435.503 353.117 434.475 355.584 432.419 355.584L430.568 355.584 430.568 369.344C430.568 370.914 429.297 372.186 427.726 372.186L420.865 372.186 420.865 361.716C420.865 360.539 419.912 359.585 418.734 359.585L415.388 359.585Z" stroke="#FFFFFF" stroke-width="2.33688" stroke-linecap="round" stroke-linejoin="round" fill="none"/><text fill="#FFFFFF" font-family="Arial,Arial_MSFontService,sans-serif" font-weight="400" font-size="2" transform="matrix(1.86949 0 0 1.86949 390 321)">Home</text></g></svg>