<svg width="67" height="66" xmlns="http://www.w3.org/2000/svg" xmlns:xlink="http://www.w3.org/1999/xlink" xml:space="preserve" overflow="hidden"><defs><clipPath id="clip0"><rect x="1050" y="304" width="67" height="66"/></clipPath></defs><g clip-path="url(#clip0)" transform="translate(-1050 -304)"><path d="M16.1566 15.2021C11.0582 19.1365 10.127 26.4466 14.0614 31.5217 17.1577 35.5492 22.3725 36.9693 26.9354 35.4561L29.8921 39.2741 32.1968 39.437 32.8021 40.2286 33.3841 40.9735 32.9418 43.255 34.7577 45.6063 37.0624 45.7693 37.6677 46.5608 38.2497 47.3058 37.8074 49.5873 39.6931 52.0317 45.7227 53.382 45.7926 47.3291 33.0116 30.7767C35.6423 26.7492 35.5725 21.3481 32.4762 17.3206 28.5418 12.2222 21.2317 11.291 16.1566 15.2254Z" stroke="#000000" stroke-width="2.91005" stroke-linecap="round" stroke-linejoin="round" fill="#FFFFFF" transform="matrix(1.01515 0 0 1 1050 304)"/><path d="M23.4667 20.7429C23.4667 22.4143 22.1117 23.7693 20.4402 23.7693 18.7687 23.7693 17.4138 22.4143 17.4138 20.7429 17.4138 19.0714 18.7687 17.7164 20.4402 17.7164 22.1117 17.7164 23.4667 19.0714 23.4667 20.7429Z" transform="matrix(1.01515 0 0 1 1050 304)"/><path d="M54.3598 22.7915C54.3598 28.4102 49.8049 32.9651 44.1862 32.9651 38.5675 32.9651 34.0127 28.4102 34.0127 22.7915 34.0127 17.1728 38.5675 12.618 44.1862 12.618 49.8049 12.618 54.3598 17.1728 54.3598 22.7915Z" stroke="#000000" stroke-width="2.91005" stroke-linecap="round" stroke-miterlimit="10" fill="#FFFFFF" transform="matrix(1.01515 0 0 1 1050 304)"/><path d="M44.1862 18.5079 44.1862 27.0751" stroke="#000000" stroke-width="2.91005" stroke-linecap="round" stroke-miterlimit="10" fill="none" transform="matrix(1.01515 0 0 1 1050 304)"/><path d="M48.4698 22.7915 39.9026 22.7915" stroke="#000000" stroke-width="2.91005" stroke-linecap="round" stroke-miterlimit="10" fill="none" transform="matrix(1.01515 0 0 1 1050 304)"/><text fill="#FFFFFF" font-family="Arial,Arial_MSFontService,sans-serif" font-weight="400" font-size="2" transform="matrix(2.36332 0 0 2.32804 1050 296)">V</text><text fill="#FFFFFF" font-family="Arial,Arial_MSFontService,sans-serif" font-weight="400" font-size="2" transform="matrix(2.36332 0 0 2.32804 1052.48 296)">o</text><text fill="#FFFFFF" font-family="Arial,Arial_MSFontService,sans-serif" font-weight="400" font-size="2" transform="matrix(2.36332 0 0 2.32804 1055.08 296)">r</text><text fill="#FFFFFF" font-family="Arial,Arial_MSFontService,sans-serif" font-weight="400" font-size="2" transform="matrix(2.36332 0 0 2.32804 1056.74 296)">t</text><text fill="#FFFFFF" font-family="Arial,Arial_MSFontService,sans-serif" font-weight="400" font-size="2" transform="matrix(2.36332 0 0 2.32804 1058.27 296)">eile </text><text fill="#FFFFFF" font-family="Arial,Arial_MSFontService,sans-serif" font-weight="400" font-size="2" transform="matrix(2.36332 0 0 2.32804 1066.24 296)">M</text><text fill="#FFFFFF" font-family="Arial,Arial_MSFontService,sans-serif" font-weight="400" font-size="2" transform="matrix(2.36332 0 0 2.32804 1070.09 296)">ie</text><text fill="#FFFFFF" font-family="Arial,Arial_MSFontService,sans-serif" font-weight="400" font-size="2" transform="matrix(2.36332 0 0 2.32804 1073.56 296)">t</text><text fill="#FFFFFF" font-family="Arial,Arial_MSFontService,sans-serif" font-weight="400" font-size="2" transform="matrix(2.36332 0 0 2.32804 1075.1 296)">er</text></g></svg>