<svg width="54" height="54" xmlns="http://www.w3.org/2000/svg" xmlns:xlink="http://www.w3.org/1999/xlink" xml:space="preserve" overflow="hidden"><defs><clipPath id="clip0"><rect x="613" y="565" width="54" height="54"/></clipPath></defs><g clip-path="url(#clip0)" transform="translate(-613 -565)"><path d="M635.724 608.924 655.724 608.924C656.829 608.924 657.743 608.029 657.743 606.905L657.743 582.467C657.743 582.2 657.629 581.933 657.438 581.724L651.343 575.362C651.133 575.152 650.867 575.038 650.581 575.038L635.381 575.038C634.276 575.038 633.362 575.933 633.362 577.057L633.362 606.562C633.362 607.857 634.41 608.924 635.724 608.924Z" stroke="#FFFFFF" stroke-width="2.38097" stroke-linecap="round" stroke-linejoin="round" fill="none"/><path d="M637.971 587.857 652.829 587.857" stroke="#FFFFFF" stroke-width="2.38097" stroke-linecap="round" stroke-linejoin="round" fill="none"/><path d="M638.848 594.2 652.829 594.2" stroke="#FFFFFF" stroke-width="2.38097" stroke-linecap="round" stroke-linejoin="round" fill="none"/><path d="M641.933 600.543 652.829 600.543" stroke="#FFFFFF" stroke-width="2.38097" stroke-linecap="round" stroke-linejoin="round" fill="none"/><path d="M650.581 576.352 650.581 582.448 656.448 582.448" stroke="#FFFFFF" stroke-width="2.38097" stroke-linecap="round" stroke-linejoin="round" fill="none"/><path d="M635.114 602.733 621.781 586.962 624.943 584.2 638.276 599.952 635.114 602.733Z" stroke="#FFFFFF" stroke-width="2.38097" stroke-linecap="round" stroke-linejoin="round" fill="#FFFFFF"/><path d="M638.448 600.067 640.391 605.324 635.114 602.79" stroke="#FFFFFF" stroke-width="2.38097" stroke-linecap="round" stroke-linejoin="round" fill="none"/><text fill="#FFFFFF" font-family="Arial,Arial_MSFontService,sans-serif" font-weight="400" font-size="2" transform="matrix(1.90476 0 0 1.90476 613 559)">A</text><text fill="#FFFFFF" font-family="Arial,Arial_MSFontService,sans-serif" font-weight="400" font-size="2" transform="matrix(1.90476 0 0 1.90476 615.324 559)">ngebo</text><text fill="#FFFFFF" font-family="Arial,Arial_MSFontService,sans-serif" font-weight="400" font-size="2" transform="matrix(1.90476 0 0 1.90476 625.724 559)">t</text><text fill="#FFFFFF" font-family="Arial,Arial_MSFontService,sans-serif" font-weight="400" font-size="2" transform="matrix(1.90476 0 0 1.90476 626.981 559)">-</text><text fill="#FFFFFF" font-family="Arial,Arial_MSFontService,sans-serif" font-weight="400" font-size="2" transform="matrix(1.90476 0 0 1.90476 628.105 559)">V</text><text fill="#FFFFFF" font-family="Arial,Arial_MSFontService,sans-serif" font-weight="400" font-size="2" transform="matrix(1.90476 0 0 1.90476 630.105 559)">e</text><text fill="#FFFFFF" font-family="Arial,Arial_MSFontService,sans-serif" font-weight="400" font-size="2" transform="matrix(1.90476 0 0 1.90476 632.01 559)">r</text><text fill="#FFFFFF" font-family="Arial,Arial_MSFontService,sans-serif" font-weight="400" font-size="2" transform="matrix(1.90476 0 0 1.90476 633.343 559)">t</text><text fill="#FFFFFF" font-family="Arial,Arial_MSFontService,sans-serif" font-weight="400" font-size="2" transform="matrix(1.90476 0 0 1.90476 634.6 559)">r</text><text fill="#FFFFFF" font-family="Arial,Arial_MSFontService,sans-serif" font-weight="400" font-size="2" transform="matrix(1.90476 0 0 1.90476 635.838 559)">ag</text></g></svg>