<svg width="54" height="53" xmlns="http://www.w3.org/2000/svg" xmlns:xlink="http://www.w3.org/1999/xlink" xml:space="preserve" overflow="hidden"><defs><clipPath id="clip0"><rect x="836" y="327" width="54" height="53"/></clipPath></defs><g clip-path="url(#clip0)" transform="translate(-836 -327)"><path d="M39.278 12.3199C40.8164 12.3199 42.0635 13.5671 42.0635 15.1055L42.0635 39.521C42.0635 41.0594 40.8164 42.3065 39.278 42.3065L14.8624 42.3065C13.324 42.3065 12.0769 41.0594 12.0769 39.521L12.0769 15.1055C12.0769 13.5671 13.324 12.3199 14.8624 12.3199Z" stroke="#FFFFFF" stroke-width="2.33688" stroke-linecap="round" stroke-linejoin="round" fill="none" transform="matrix(1.01887 0 0 1 836 327)"/><path d="M17.1806 26.715 24.509 33.7069 36.5485 20.2466" stroke="#FFFFFF" stroke-width="2.33688" stroke-linecap="round" stroke-linejoin="round" fill="none" transform="matrix(1.01887 0 0 1 836 327)"/><text fill="#FFFFFF" font-family="Arial,Arial_MSFontService,sans-serif" font-weight="400" font-size="2" transform="matrix(1.90476 0 0 1.86949 836 321)">Chec</text><text fill="#FFFFFF" font-family="Arial,Arial_MSFontService,sans-serif" font-weight="400" font-size="2" transform="matrix(1.90476 0 0 1.86949 843.943 321)">k</text><text fill="#FFFFFF" font-family="Arial,Arial_MSFontService,sans-serif" font-weight="400" font-size="2" transform="matrix(1.90476 0 0 1.86949 845.79 321)">b</text><text fill="#FFFFFF" font-family="Arial,Arial_MSFontService,sans-serif" font-weight="400" font-size="2" transform="matrix(1.90476 0 0 1.86949 847.962 321)">o</text><text fill="#FFFFFF" font-family="Arial,Arial_MSFontService,sans-serif" font-weight="400" font-size="2" transform="matrix(1.90476 0 0 1.86949 850 321)">x</text></g></svg>