<svg width="54" height="53" xmlns="http://www.w3.org/2000/svg" xmlns:xlink="http://www.w3.org/1999/xlink" xml:space="preserve" overflow="hidden"><defs><clipPath id="clip0"><rect x="613" y="327" width="54" height="53"/></clipPath></defs><g clip-path="url(#clip0)" transform="translate(-613 -327)"><path d="M31.5757 27.2198 15.6663 43.1291C14.0399 44.7556 11.3852 44.7556 9.75873 43.1291L9.75873 43.1291C8.13227 41.5026 8.13227 38.848 9.75873 37.2215L25.4624 21.5178C25.4624 21.5178 23.5929 15.3672 27.8741 11.03 32.1552 6.69277 38.1376 9.42222 38.1376 9.42222L31.9496 15.6102 32.8469 20.34 37.072 21.0878 43.3721 14.9933C43.3721 14.9933 45.4286 21.3309 41.5026 25.2568 37.5767 29.1827 31.557 27.2011 31.557 27.2011Z" stroke="#000000" stroke-width="2.33686" stroke-linecap="round" stroke-linejoin="round" fill="none" transform="matrix(1.01887 0 0 1 613 327)"/><text fill="#FFFFFF" font-family="Arial,Arial_MSFontService,sans-serif" font-weight="400" font-size="2" transform="matrix(1.90476 0 0 1.86949 613 321)">I</text><text fill="#FFFFFF" font-family="Arial,Arial_MSFontService,sans-serif" font-weight="400" font-size="2" transform="matrix(1.90476 0 0 1.86949 613.952 321)">nstall</text><text fill="#FFFFFF" font-family="Arial,Arial_MSFontService,sans-serif" font-weight="400" font-size="2" transform="matrix(1.90476 0 0 1.86949 622.467 321)">a</text><text fill="#FFFFFF" font-family="Arial,Arial_MSFontService,sans-serif" font-weight="400" font-size="2" transform="matrix(1.90476 0 0 1.86949 624.295 321)">tion</text></g></svg>